<?xml version="1.0" encoding="utf-8"?>
<!-- Generator: Adobe Illustrator 24.0.1, SVG Export Plug-In . SVG Version: 6.00 Build 0)  -->
<svg version="1.1" id="Слой_1" xmlns:svgjs="http://svgjs.com/svgjs"
	 xmlns="http://www.w3.org/2000/svg" xmlns:xlink="http://www.w3.org/1999/xlink" x="0px" y="0px" viewBox="0 0 512 512"
	 style="enable-background:new 0 0 512 512;" xml:space="preserve">
<style type="text/css">
	.st0{fill:#FFFFFF;}
	.st1{fill:none;stroke:#FFFFFF;stroke-width:30;stroke-linecap:round;stroke-miterlimit:10;}
</style>
<g>
	<g>
		<g>
			<g>
				<path class="st0" d="M159.4,441.1c-19.3-9.6-36.6-22.1-51.5-37c-14.9-14.9-27.3-32.2-37-51.5c-2.9-5.8-9.9-8.1-15.6-5.2
					c-5.8,2.9-8.1,9.9-5.2,15.6c10.7,21.5,24.6,40.8,41.3,57.5c16.7,16.7,36,30.6,57.5,41.3c1.7,0.8,3.4,1.2,5.2,1.2
					c4.3,0,8.4-2.4,10.4-6.4C167.4,450.9,165.1,443.9,159.4,441.1z"/>
				<path class="st0" d="M138.5,482.7C114.8,470.8,93.4,455.4,75,437c-18.4-18.4-33.8-39.8-45.6-63.6c-2.9-5.7-9.9-8.1-15.6-5.2
					c-5.8,2.9-8.1,9.9-5.2,15.6c13,26,29.8,49.4,50,69.6c20.2,20.2,43.6,37,69.6,50c1.7,0.8,3.4,1.2,5.2,1.2c4.3,0,8.4-2.4,10.4-6.4
					C146.6,492.5,144.3,485.5,138.5,482.7z"/>
				<path class="st0" d="M373.5,29.3C397.2,41.2,418.6,56.6,437,75c18.4,18.4,33.8,39.8,45.6,63.6c2,4.1,6.1,6.4,10.4,6.4
					c1.7,0,3.5-0.4,5.2-1.2c5.8-2.9,8.1-9.9,5.2-15.6c-13-26-29.8-49.4-50-69.6c-20.2-20.2-43.6-37-69.6-50
					c-5.8-2.9-12.7-0.5-15.6,5.2C365.4,19.5,367.7,26.5,373.5,29.3z"/>
				<path class="st0" d="M352.6,70.9c19.3,9.6,36.6,22.1,51.5,37c14.9,14.9,27.3,32.2,37,51.5c2,4.1,6.1,6.4,10.4,6.4
					c1.7,0,3.5-0.4,5.2-1.2c5.8-2.9,8.1-9.9,5.2-15.6c-10.7-21.5-24.6-40.8-41.3-57.5c-16.7-16.7-36-30.6-57.5-41.3
					c-5.8-2.8-12.7-0.5-15.6,5.2C344.6,61.1,346.9,68.1,352.6,70.9z"/>
				<path class="st0" d="M501.8,301L210.9,9.9c-13.1-13.2-36.2-13.3-49.4,0L10.2,161.3C3.6,167.9,0,176.6,0,186s3.6,18.1,10.2,24.7
					l290.9,291.1c6.6,6.6,15.4,10.3,24.7,10.3c9.3,0,18.1-3.6,24.7-10.2l151.3-151.4c6.6-6.6,10.2-15.4,10.2-24.7
					S508.4,307.6,501.8,301z M415.5,392.2l-23.3,23.3c-2.3,2.3-5.3,3.4-8.2,3.4c-3,0-6-1.1-8.2-3.4c-4.5-4.5-4.5-11.9,0-16.5
					l23.3-23.3c4.5-4.5,11.9-4.5,16.5,0C420,380.3,420,387.7,415.5,392.2z M296.7,431.5L51.4,186.2L186.2,51.4l245.4,245.4
					L296.7,431.5z"/>
				<path class="st0" d="M143,119.8L119.8,143c-4.5,4.5-4.5,11.9,0,16.5c2.3,2.3,5.3,3.4,8.2,3.4c3,0,6-1.1,8.2-3.4l23.3-23.3
					c4.5-4.5,4.5-11.9,0-16.5C155,115.2,147.6,115.2,143,119.8z"/>
				<circle class="st0" cx="186.2" cy="81.5" r="11.6"/>
			</g>
		</g>
	</g>
</g>
<line class="st1" x1="490" y1="21" x2="25" y2="484"/>
</svg>
