<?xml version="1.0" encoding="utf-8"?>
<!-- Generator: Adobe Illustrator 24.0.1, SVG Export Plug-In . SVG Version: 6.00 Build 0)  -->
<svg version="1.1" xmlns="http://www.w3.org/2000/svg" xmlns:xlink="http://www.w3.org/1999/xlink" x="0px" y="0px"
	 viewBox="0 0 165 165" style="enable-background:new 0 0 165 165;" xml:space="preserve">
<style type="text/css">
	.st0{fill:url(#SVGID_1_);}
	.st1{display:none;}
	.st2{display:inline;opacity:0.36;}
	.st3{opacity:0.25;fill:none;stroke:#000000;stroke-width:6;stroke-miterlimit:10;}
	.st4{fill:none;stroke:#FFFFFF;stroke-width:6;stroke-miterlimit:10;}
	.st5{opacity:0.25;}
	.st6{fill:none;stroke:#000000;stroke-width:6;stroke-miterlimit:10;}
</style>
<g id="Фон">
	
		<linearGradient id="SVGID_1_" gradientUnits="userSpaceOnUse" x1="0" y1="82.5" x2="165" y2="82.5" gradientTransform="matrix(0 1 -1 0 165 0)">
		<stop  offset="0.0101" style="stop-color:#2F3F7C"/>
		<stop  offset="1" style="stop-color:#3F4E87"/>
	</linearGradient>
	<path class="st0" d="M0,131.38V33.63C0,15.05,15.05,0,33.63,0h97.75C149.95,0,165,15.05,165,33.63v97.75
		c0,18.57-15.05,33.63-33.63,33.63H33.63C15.05,165,0,149.95,0,131.38z"/>
</g>
<g id="Направляющие" class="st1">
	<rect class="st2" width="8.67" height="165"/>
	<rect x="156.33" class="st2" width="8.67" height="165"/>
	
		<rect x="78.17" y="-78.17" transform="matrix(6.123234e-17 -1 1 6.123234e-17 78.1667 86.8333)" class="st2" width="8.67" height="165"/>
	
		<rect x="78.17" y="78.17" transform="matrix(6.123234e-17 -1 1 6.123234e-17 -78.1667 243.1667)" class="st2" width="8.67" height="165"/>
</g>
<g id="Элементы">
	<circle id="Шарик_1_" class="st3" cx="70" cy="127.92" r="16"/>
	<circle id="Шарик" class="st4" cx="67.5" cy="125.5" r="16"/>
	<path id="Задний_стакан_1_" class="st3" d="M83.03,70.52l-6.17-32.47c-0.2-1.07-1.04-1.79-2.12-1.77
		c-4,0.05-10.67-0.04-13.82,0c-1.04,0.01-1.98,0.86-2.2,1.87l-9.7,44.23c-0.14,0.64,0.16,0.86,0.81,0.85l20.7-0.05L84.03,83
		c0.62-0.01,1.08-0.57,0.97-1.17L83.03,70.52z"/>
	<path id="Задний_стакан" class="st4" d="M79.51,67.29l-6.17-32.47c-0.2-1.07-1.04-1.79-2.12-1.77
		c-4,0.05-10.67-0.04-13.82,0c-1.04,0.01-1.98,0.86-2.2,1.87l-9.7,44.23c-0.14,0.64,0.16,0.86,0.81,0.85L67,79.95l13.51-0.19
		c0.62-0.01,1.08-0.57,0.97-1.17L79.51,67.29z"/>
	<g id="Передний_стакан_1_" class="st5">
		<path class="st6" d="M107.62,116.24c1.94-3.01-6.22-11.71-18.23-19.42c-11.96-7.68-23.21-11.49-25.21-8.54
			c-0.01,0.01-0.02,0.02-0.02,0.03c-1.94,3.01,6.22,11.71,18.23,19.42S105.68,119.26,107.62,116.24z"/>
		<path class="st6" d="M107.54,116.31l25.45-60.31c0.33-0.77,0.06-1.67-0.65-2.12c-4.92-3.18-14.78-9.55-18.13-11.72
			c-0.67-0.43-1.55-0.35-2.13,0.21L64.16,88.32"/>
	</g>
	<g id="Передний_стакан">
		<path class="st4" d="M105.42,111.88c1.94-3.01-6.22-11.71-18.23-19.42c-11.96-7.68-23.21-11.49-25.21-8.54
			c-0.01,0.01-0.02,0.02-0.02,0.03c-1.94,3.01,6.22,11.71,18.23,19.42S103.48,114.89,105.42,111.88z"/>
		<path class="st4" d="M105.34,111.95l25.45-60.31c0.33-0.77,0.06-1.67-0.65-2.12c-4.92-3.18-14.78-9.55-18.13-11.72
			c-0.67-0.43-1.55-0.35-2.13,0.21L61.96,83.95"/>
	</g>
</g>
</svg>
